<?xml version="1.0" standalone="no"?>
<!DOCTYPE svg PUBLIC "-//W3C//DTD SVG 20010904//EN"
 "http://www.w3.org/TR/2001/REC-SVG-20010904/DTD/svg10.dtd">
<svg version="1.0" xmlns="http://www.w3.org/2000/svg"
 width="900.000000pt" height="1035.000000pt" viewBox="0 0 900.000000 1035.000000"
 preserveAspectRatio="xMidYMid meet">

<g transform="translate(0.000000,1035.000000) scale(0.100000,-0.100000)"
fill="#000000" stroke="none">
<path d="M370 10339 c-171 -33 -326 -196 -360 -378 -7 -36 -10 -1625 -10
-4785 0 -5195 -4 -4804 61 -4926 64 -121 204 -220 334 -238 33 -4 1894 -7
4135 -7 3281 1 4084 4 4120 14 168 48 308 201 340 371 7 37 9 1642 8 4820 l-3
4765 -22 58 c-49 129 -154 238 -280 289 l-58 23 -4110 1 c-2339 1 -4129 -2
-4155 -7z m5074 -721 c3 -13 6 -315 6 -673 l1 -650 25 30 c89 106 118 135 167
169 165 114 419 128 609 34 81 -41 202 -160 246 -245 57 -108 75 -197 75 -368
0 -120 -4 -168 -21 -237 -44 -177 -116 -306 -244 -431 -65 -63 -98 -86 -181
-127 -135 -65 -230 -84 -386 -77 -64 3 -145 13 -181 22 -78 21 -192 73 -239
109 -19 14 -38 26 -42 26 -4 0 -37 -38 -73 -84 -60 -77 -98 -108 -113 -92 -3
3 -6 497 -7 1098 -1 1072 -1 1094 -21 1133 -25 50 -74 83 -137 91 -58 8 -78
32 -55 67 10 16 42 28 128 49 90 22 144 43 259 101 80 41 152 75 161 76 9 0
19 -9 23 -21z m-3551 -117 c242 -66 427 -223 497 -424 31 -86 38 -240 16 -327
-40 -161 -158 -309 -308 -385 -80 -41 -89 -54 -64 -90 7 -11 104 -182 216
-380 206 -366 237 -417 298 -493 68 -84 168 -121 274 -102 67 13 88 4 88 -37
0 -35 -40 -70 -133 -113 -279 -131 -471 -80 -660 174 -81 111 -170 262 -309
531 -191 369 -192 370 -430 370 -107 0 -151 -4 -160 -13 -18 -18 -18 -627 0
-727 36 -198 90 -259 260 -291 80 -15 102 -30 102 -70 0 -28 -23 -46 -57 -46
-16 0 -138 4 -273 7 -191 6 -281 4 -411 -9 -270 -26 -299 -23 -299 35 0 32 11
42 76 67 75 28 119 65 145 125 l24 52 2 835 c2 799 -2 929 -28 1009 -28 83
-133 155 -270 184 -92 19 -109 31 -109 72 0 52 21 59 141 46 181 -20 486 -12
924 23 28 2 122 2 210 1 124 -3 177 -8 238 -24z m1637 -866 c9 -11 9 -64 0
-247 -16 -296 -8 -782 14 -885 20 -98 46 -152 88 -189 52 -46 99 -59 208 -59
78 0 104 4 145 23 93 43 145 115 165 233 16 91 9 873 -8 912 -14 32 -55 52
-127 62 -88 13 -119 50 -74 90 17 16 45 20 202 26 108 4 213 14 257 24 41 9
84 18 95 18 20 2 20 -6 25 -663 4 -483 9 -672 17 -692 20 -45 52 -58 159 -66
l99 -7 3 -37 c5 -55 -14 -61 -218 -69 -116 -5 -211 -15 -283 -29 -139 -29
-137 -30 -137 106 0 70 -4 104 -11 104 -6 0 -50 -37 -98 -83 -142 -135 -245
-174 -435 -164 -253 12 -395 121 -461 353 -23 80 -31 414 -16 729 14 309 6
341 -91 351 -96 11 -109 15 -117 37 -11 28 3 55 35 67 14 6 104 14 202 20 117
6 201 16 247 29 87 24 100 25 115 6z m4489 -80 c231 -2 265 -4 273 -19 14 -25
-7 -51 -66 -80 -57 -28 -88 -62 -126 -135 -12 -25 -182 -441 -376 -925 -245
-610 -361 -887 -376 -900 -20 -16 -34 -17 -113 -11 -49 4 -93 9 -97 12 -17 10
-5 34 63 124 140 184 206 293 228 376 9 33 8 50 -3 85 -29 83 -648 1293 -680
1326 -17 19 -49 43 -71 54 -47 24 -54 33 -48 59 10 36 37 41 150 30 137 -14
340 -14 477 0 137 14 156 9 156 -35 0 -41 -12 -52 -70 -61 -118 -19 -146 -76
-96 -195 27 -66 343 -665 369 -700 l18 -25 23 27 c25 28 172 387 212 517 32
104 49 209 40 255 -10 54 -79 120 -146 140 -29 9 -59 21 -66 27 -33 27 -1 76
41 63 11 -4 139 -8 284 -9z m-4564 -1978 l29 -99 765 3 c818 3 791 4 975 -48
244 -69 455 -186 619 -342 271 -257 384 -566 428 -1166 22 -300 8 -507 -66
-967 -20 -123 -69 -509 -110 -858 -41 -349 -81 -691 -90 -760 -8 -69 -49 -415
-90 -770 -41 -355 -81 -699 -90 -765 -8 -66 -17 -165 -21 -220 -4 -55 -8 -107
-10 -115 -1 -8 -3 -43 -3 -77 l-1 -63 -75 0 c-67 0 -75 2 -75 19 0 11 14 192
30 403 31 383 68 865 135 1718 19 250 48 617 64 815 15 198 27 361 27 362 -1
1 -19 -39 -40 -90 -108 -258 -324 -664 -523 -983 l-101 -162 73 -498 c41 -275
108 -731 149 -1014 42 -283 78 -525 81 -538 5 -20 2 -22 -29 -22 -19 0 -37 3
-39 8 -3 4 -19 99 -36 212 -44 292 -239 1625 -247 1688 -4 29 -10 54 -14 57
-4 2 -47 -55 -96 -127 -270 -399 -666 -903 -977 -1246 -67 -74 -128 -142 -135
-152 -12 -17 5 -35 182 -191 107 -96 193 -175 191 -177 -2 -3 -28 -1 -58 2
-52 7 -59 12 -217 152 -141 125 -167 144 -197 144 -29 0 -52 -17 -171 -125
l-137 -125 -54 0 c-47 0 -53 2 -41 14 8 7 84 75 169 152 85 76 150 139 145
141 -5 2 -162 52 -349 112 -187 60 -650 209 -1030 331 -379 122 -753 242 -830
267 -485 155 -569 182 -573 179 -2 -2 58 -123 133 -267 76 -145 173 -334 217
-419 44 -85 107 -205 139 -266 33 -61 59 -116 59 -122 0 -12 -26 -10 -39 4 -5
5 -130 242 -277 527 -147 284 -270 517 -273 517 -4 0 -60 -179 -125 -398 -66
-218 -128 -425 -139 -459 -10 -35 -23 -63 -27 -63 -18 0 -30 71 -36 215 -3 83
-7 159 -9 171 -2 11 -11 175 -21 364 -16 300 -16 345 -4 352 8 5 71 41 140 79
409 231 796 538 1278 1013 373 367 606 647 845 1013 241 367 400 711 477 1026
31 125 59 331 47 343 -6 6 -59 -3 -647 -115 -353 -67 -389 -74 -375 -65 6 3
237 83 515 178 364 124 504 176 503 187 -15 115 -23 132 -109 218 -46 47 -82
86 -80 88 2 2 25 -6 51 -17 26 -11 50 -19 52 -17 8 8 -85 124 -137 170 -62 56
-168 109 -260 132 -102 25 -276 30 -415 11 -578 -77 -1278 -431 -1935 -980
-63 -53 -118 -96 -122 -96 -5 0 -8 22 -8 48 0 27 -3 83 -6 124 l-7 75 304 262
c167 145 323 276 348 292 24 17 82 45 130 63 47 18 372 166 721 328 l635 296
450 7 c248 4 451 8 453 10 4 3 -15 140 -25 185 -4 16 -2 22 4 15 6 -5 23 -54
38 -108z"/>
<path d="M5644 8342 c-66 -23 -124 -70 -163 -130 l-31 -49 0 -359 c0 -355 0
-360 24 -409 28 -62 111 -153 174 -193 108 -69 261 -81 374 -29 103 46 186
156 224 297 27 97 24 337 -4 442 -51 186 -161 337 -297 404 -64 32 -85 37
-162 41 -68 3 -100 -1 -139 -15z"/>
<path d="M1301 9376 c-47 -17 -77 -56 -90 -116 -14 -67 -15 -761 0 -812 18
-67 36 -70 313 -66 241 3 241 3 298 31 95 46 164 142 189 260 18 80 6 239 -24
319 -71 196 -216 328 -413 378 -87 23 -220 25 -273 6z"/>
<path d="M4420 6091 l-445 -246 -26 -65 c-15 -36 -24 -68 -20 -71 8 -7 314
-49 358 -49 26 0 709 118 793 137 59 13 -1 -16 -85 -41 -277 -84 -439 -141
-409 -144 16 -2 343 -47 725 -101 381 -54 695 -97 697 -96 1 1 -9 36 -23 78
-140 431 -478 714 -982 826 -51 12 -103 21 -115 20 -13 -1 -223 -112 -468
-248z"/>
<path d="M3641 6326 c2 -3 41 -6 86 -7 45 -2 81 -6 80 -10 -1 -4 3 -7 8 -7 6
0 9 5 7 11 -2 7 0 8 5 4 4 -5 8 -18 8 -30 1 -14 6 -21 15 -19 12 3 13 1 3 -9
-10 -10 -7 -19 15 -42 15 -16 21 -27 13 -25 -7 2 -15 -2 -18 -9 -3 -8 3 -11
16 -8 15 3 18 0 14 -12 -4 -10 -2 -14 4 -10 6 4 10 -3 9 -16 0 -12 4 -21 11
-20 7 2 10 -7 7 -22 -4 -20 -1 -23 18 -20 16 3 19 2 11 -6 -14 -14 -5 -41 10
-32 6 4 7 1 1 -8 -10 -17 -6 -49 8 -66 10 -12 4 -17 -15 -14 -4 0 -6 -2 -6 -6
3 -19 -2 -33 -12 -33 -5 0 -8 4 -4 9 3 6 7 29 10 53 3 35 2 38 -5 18 l-10 -25
4 27 c2 17 -1 25 -7 21 -6 -4 -7 -1 -2 7 5 8 4 11 -2 7 -9 -6 -13 6 -14 45 0
10 -5 20 -10 24 -6 3 -7 -7 -4 -26 3 -20 2 -29 -4 -25 -6 3 -9 19 -7 35 2 18
-1 27 -7 23 -5 -3 -7 -1 -3 5 3 6 2 13 -4 17 -5 3 -11 16 -11 28 -1 20 -2 21
-6 2 -3 -11 -12 -27 -20 -37 -10 -11 -11 -18 -3 -23 6 -3 9 -3 8 2 -2 4 2 9 7
10 6 0 8 -4 7 -10 -10 -31 -10 -47 -2 -52 5 -3 7 3 5 13 -2 10 1 25 6 33 9 15
10 14 14 -46 1 -22 4 -42 5 -45 1 -3 2 -8 2 -11 -1 -3 5 -6 13 -6 8 0 12 4 9
8 -2 4 0 10 6 14 10 6 12 -4 14 -72 0 -27 -3 -37 -12 -35 -8 1 -11 -2 -7 -8 9
-15 11 -14 55 26 36 32 39 39 27 53 -15 17 -19 54 -6 45 5 -2 5 -12 2 -21 -4
-11 -3 -14 6 -9 6 4 11 4 10 -1 -1 -4 2 -18 6 -29 7 -23 -19 -37 610 310 l120
66 -549 0 c-302 0 -547 -2 -545 -4z m236 -73 c-4 -3 1 -16 10 -27 18 -21 18
-21 -4 -2 -20 16 -23 36 -6 36 4 0 3 -3 0 -7z m29 -230 c-3 -19 -19 -21 -21
-2 -2 9 3 16 10 16 7 0 12 -6 11 -14z m95 0 c13 -16 12 -17 -3 -4 -10 7 -18
15 -18 17 0 8 8 3 21 -13z"/>
<path d="M3749 6297 c7 -7 7 -14 0 -23 -7 -8 -7 -14 1 -19 6 -4 9 -2 8 3 -3 9
2 12 17 12 3 0 1 -8 -4 -19 -8 -14 -6 -22 8 -35 10 -9 21 -13 26 -9 4 5 5 0 2
-10 -4 -10 -3 -16 2 -12 16 9 24 -35 10 -53 -9 -11 -9 -13 -1 -6 7 5 21 27 31
47 18 35 18 37 0 53 -10 9 -16 20 -14 25 3 4 1 10 -5 14 -6 4 -7 12 -4 18 4 7
4 9 -1 5 -4 -4 -15 -2 -23 4 -18 15 -68 20 -53 5z m63 -25 c13 -14 17 -22 11
-18 -21 12 -15 -4 8 -23 16 -13 20 -23 14 -41 l-8 -24 -14 27 c-8 15 -18 25
-22 22 -14 -8 -31 19 -21 35 6 10 4 20 -6 31 -12 14 -12 16 1 16 8 0 25 -12
37 -25z"/>
<path d="M3786 6280 c5 -8 9 -25 8 -37 0 -12 2 -22 5 -21 19 2 30 -4 34 -19 4
-17 5 -17 6 -1 0 10 -8 22 -20 28 -11 7 -18 18 -15 25 2 7 -3 19 -12 27 -15
11 -16 11 -6 -2z"/>
<path d="M3765 6200 c10 -11 20 -20 23 -20 3 0 -3 9 -13 20 -10 11 -20 20 -23
20 -3 0 3 -9 13 -20z"/>
<path d="M3803 6155 c0 -8 4 -12 9 -9 5 3 6 10 3 15 -9 13 -12 11 -12 -6z"/>
<path d="M3870 6154 c0 -11 12 -31 27 -45 28 -24 28 -24 8 0 -11 13 -18 24
-16 25 3 0 0 10 -7 21 -11 20 -11 20 -12 -1z"/>
<path d="M3921 6049 c5 -10 14 -21 20 -25 8 -5 8 -1 0 13 -6 11 -8 22 -6 25 3
3 -2 5 -9 5 -11 0 -12 -5 -5 -18z"/>
<path d="M3897 5948 c19 -21 31 -25 14 -5 -6 8 -9 16 -6 19 3 2 -2 5 -10 5
-13 0 -13 -3 2 -19z"/>
<path d="M3780 5740 c-9 -6 -10 -10 -3 -10 6 0 15 5 18 10 8 12 4 12 -15 0z"/>
<path d="M3901 5651 c-15 -27 -14 -34 8 -48 16 -10 41 -9 127 7 59 11 109 21
110 23 2 2 -45 9 -104 16 -59 8 -112 16 -119 18 -6 3 -16 -5 -22 -16z"/>
<path d="M4267 5526 l-189 -61 239 -195 c131 -107 534 -437 896 -732 583 -478
661 -538 691 -538 33 0 35 2 50 53 132 462 168 901 99 1237 -8 41 -16 76 -17
77 -1 2 -164 26 -362 53 -197 28 -550 78 -783 110 -234 33 -427 60 -430 59 -3
-1 -91 -29 -194 -63z"/>
<path d="M4425 5062 c4 -21 -9 -36 -30 -37 -5 0 -9 -9 -7 -19 2 -13 0 -16 -10
-10 -7 5 -22 9 -33 9 -12 1 -19 7 -17 15 2 8 0 11 -5 7 -4 -5 -9 -13 -9 -18
-1 -5 -2 -12 -3 -16 0 -3 -11 2 -23 13 -23 19 -23 19 -5 -2 26 -32 20 -40 -10
-13 -14 13 -22 17 -17 9 5 -8 10 -26 11 -40 2 -23 1 -23 -12 5 -10 20 -14 24
-15 12 0 -10 -5 -15 -10 -12 -6 4 -8 12 -4 18 3 7 -6 -1 -19 -17 -14 -16 -27
-24 -31 -18 -3 6 0 13 6 16 7 3 4 4 -7 3 -11 -1 -20 3 -20 10 0 6 -3 14 -6 18
-4 3 -5 -8 -4 -25 1 -17 -1 -33 -6 -36 -5 -3 -9 3 -10 13 0 14 -2 14 -9 -4 -5
-13 -12 -23 -15 -23 -4 0 -4 10 0 23 l6 22 -14 -23 c-7 -12 -16 -20 -20 -16
-4 4 -1 14 5 23 7 9 8 13 4 9 -5 -4 -16 -2 -25 5 -14 10 -14 10 -4 -4 7 -9 10
-19 6 -22 -9 -10 -34 14 -26 26 4 6 1 7 -6 3 -9 -6 -9 -12 3 -25 10 -11 12
-21 6 -31 -9 -15 -11 -13 -14 12 0 6 -9 12 -19 14 -14 2 -15 -1 -8 -10 6 -7 8
-16 4 -19 -3 -4 -12 1 -20 11 -10 14 -12 14 -8 1 4 -10 0 -16 -9 -16 -11 0
-14 8 -12 24 3 13 1 21 -5 18 -5 -4 -7 -10 -4 -15 3 -4 -4 -19 -15 -31 -11
-13 -19 -19 -20 -14 0 6 5 16 10 21 7 7 6 11 -4 11 -10 0 -13 -11 -11 -41 3
-27 1 -35 -6 -25 -5 7 -9 28 -10 44 0 17 -4 39 -9 50 -7 14 -8 9 -4 -20 11
-95 146 -1040 149 -1044 4 -3 1203 74 1305 84 25 2 131 9 235 16 105 6 191 12
193 14 1 1 -69 60 -155 130 -87 71 -364 297 -615 502 -252 205 -460 373 -463
373 -3 0 -5 -7 -5 -15 0 -8 5 -14 12 -12 6 1 12 -10 13 -26 1 -15 -1 -25 -4
-21 -3 3 -6 10 -6 15 0 5 -4 9 -10 9 -5 0 -10 -4 -10 -9 0 -5 -3 -12 -7 -16
-3 -4 -5 1 -3 12 2 10 4 18 5 18 1 0 3 13 4 28 1 21 -6 34 -31 53 -19 14 -32
22 -31 17 4 -13 -29 -55 -36 -45 -3 5 0 15 8 21 14 12 16 35 3 47 -3 4 -5 -3
-2 -14z m55 -61 c0 -15 -5 -32 -11 -38 -7 -7 -8 -13 0 -17 6 -4 13 3 15 16 12
53 15 61 11 28 -5 -47 -10 -68 -19 -77 -4 -4 -6 -1 -4 7 2 8 -3 14 -10 12 -8
-1 -11 2 -8 7 3 5 -1 14 -10 21 -13 12 -14 10 -10 -12 3 -19 -3 -32 -22 -50
-15 -12 -21 -16 -14 -7 6 9 8 19 4 23 -4 4 -2 6 3 4 6 -1 10 2 10 7 0 6 -4 9
-8 7 -5 -1 -6 1 -3 6 2 4 1 14 -5 22 -7 12 -9 11 -10 -5 -1 -11 -1 -23 0 -27
0 -5 -3 -7 -8 -5 -5 1 -9 -2 -9 -8 0 -5 4 -9 10 -7 5 1 7 -2 3 -8 -5 -8 -11
-8 -19 -1 -7 6 -17 7 -22 3 -4 -4 -3 0 4 10 7 9 9 19 4 22 -5 3 -14 -6 -21
-21 -11 -25 -12 -25 -31 -8 -24 21 -27 9 -4 -16 12 -13 12 -19 3 -25 -7 -4
-10 -3 -6 3 8 13 -17 36 -27 26 -4 -4 -4 0 -1 8 4 10 0 16 -10 16 -9 0 -14 -6
-11 -13 3 -8 1 -16 -5 -20 -6 -4 -5 -12 3 -22 12 -15 11 -15 -4 -4 -11 9 -15
22 -12 39 4 22 3 24 -10 14 -8 -7 -13 -18 -10 -25 3 -7 -1 -18 -9 -24 -11 -9
-14 -8 -14 3 0 8 4 12 9 9 4 -3 8 -1 8 5 0 5 -4 12 -9 15 -12 8 -33 -19 -23
-29 4 -5 1 -5 -5 -1 -12 7 -18 -5 -14 -27 1 -5 -3 -5 -9 -2 -8 5 -6 14 4 30
10 15 12 26 6 30 -6 3 -10 2 -10 -2 0 -5 -7 -18 -15 -29 -15 -19 -15 -19 -8 1
6 17 5 18 -9 7 -17 -14 -18 -28 -3 -52 7 -13 6 -13 -7 -2 -9 7 -15 22 -13 32
2 11 0 22 -6 25 -8 6 -13 -8 -10 -28 1 -5 -3 -6 -9 -2 -5 3 -11 1 -11 -4 -3
-26 -4 -30 -11 -37 -12 -11 0 37 13 52 7 8 9 17 7 20 -9 8 -48 -52 -40 -61 4
-5 1 -5 -6 0 -10 5 -11 10 -3 18 6 6 11 16 11 22 -1 5 -10 -1 -20 -14 -17 -19
-18 -26 -8 -40 10 -13 9 -13 -8 1 -16 14 -23 15 -34 5 -12 -10 -12 -9 -3 3 9
11 8 20 -4 35 -15 20 -15 20 -10 -2 3 -13 1 -26 -4 -29 -6 -3 -5 -12 3 -22 11
-15 11 -15 -3 -5 -18 14 -18 75 0 96 6 8 25 13 41 12 17 -1 33 2 36 7 3 5 11
4 19 -2 10 -9 16 -6 25 10 10 18 14 19 27 8 17 -13 20 -13 41 4 6 6 12 7 12 3
0 -4 7 -2 15 5 8 7 12 17 8 24 -3 6 3 3 14 -7 20 -18 21 -18 36 3 15 22 34 11
22 -12 -4 -7 0 -5 8 5 13 16 15 16 21 2 8 -22 29 -7 23 16 -3 11 -1 17 4 13 5
-3 9 -13 9 -22 1 -9 7 -2 15 16 14 32 27 43 24 20 -1 -7 -1 -22 1 -33 l1 -20
9 20 9 20 1 -20 c1 -18 2 -17 11 4 5 13 7 26 4 29 -3 3 -5 0 -5 -7 0 -7 -4 -9
-10 -6 -5 3 -10 10 -10 15 0 12 30 6 39 -9 6 -10 10 -9 15 4 3 9 3 22 -1 28
-4 7 1 6 10 -2 9 -7 17 -21 18 -30 0 -10 4 -7 10 8 22 56 49 63 49 12z m-20
-85 c0 -2 -8 -10 -17 -17 -16 -13 -17 -12 -4 4 13 16 21 21 21 13z m-183 -53
c0 -9 -4 -10 -14 -2 -7 6 -13 12 -13 14 0 1 6 2 13 2 8 0 14 -6 14 -14z"/>
<path d="M4459 5023 c-1 -5 -1 -19 0 -33 1 -23 0 -23 -9 -5 l-10 20 3 -20 c4
-31 22 -19 23 15 1 26 -4 42 -7 23z"/>
<path d="M4400 4984 c0 -6 7 -19 16 -30 14 -18 14 -18 3 6 -14 31 -19 36 -19
24z"/>
<path d="M4307 4951 c-3 -13 -10 -20 -16 -17 -5 4 -13 1 -17 -6 -4 -7 -3 -10
1 -5 5 4 16 0 25 -8 16 -14 18 -14 23 0 4 8 3 25 -2 37 l-8 22 -6 -23z"/>
<path d="M4367 4951 c-4 -17 -3 -21 5 -13 5 5 8 16 6 23 -3 8 -7 3 -11 -10z"/>
<path d="M4200 4935 c-9 -11 -16 -12 -25 -5 -9 7 -16 6 -25 -5 -7 -8 -16 -13
-20 -10 -5 3 -11 1 -14 -4 -7 -10 -25 -9 -43 2 -9 6 -11 3 -6 -9 4 -11 3 -15
-5 -10 -6 3 -14 2 -17 -4 -5 -8 -11 -8 -20 0 -8 6 -16 7 -19 2 -3 -5 -19 -8
-36 -7 -17 1 -35 -4 -42 -13 -8 -10 -8 -13 -2 -9 7 4 19 -4 29 -19 l16 -25 20
26 c12 14 24 23 29 20 4 -3 13 1 19 9 12 15 28 16 48 3 7 -4 16 0 22 10 8 14
11 15 11 3 0 -12 3 -11 11 3 8 14 14 15 24 7 9 -8 15 -8 20 0 3 6 10 8 15 5 9
-6 23 12 26 33 3 16 -1 15 -16 -3z m-26 -26 c-3 -5 -10 -7 -15 -3 -5 3 -7 10
-3 15 3 5 10 7 15 3 5 -3 7 -10 3 -15z m-148 -31 c4 -7 3 -10 -1 -5 -5 4 -17
0 -27 -10 -10 -9 -18 -12 -18 -7 0 5 -4 4 -8 -3 -6 -9 -11 -7 -19 6 -10 16 -8
18 18 16 16 -1 32 1 35 6 7 12 12 11 20 -3z"/>
<path d="M4236 4932 c-3 -5 1 -9 9 -9 8 0 12 4 9 9 -3 4 -7 8 -9 8 -2 0 -6 -4
-9 -8z"/>
<path d="M4369 5033 c-13 -16 -12 -17 4 -4 9 7 17 15 17 17 0 8 -8 3 -21 -13z"/>
<path d="M4199 4993 c-13 -16 -12 -17 4 -4 16 13 21 21 13 21 -2 0 -10 -8 -17
-17z"/>
<path d="M3729 4893 c16 -30 21 -104 9 -126 -9 -18 -11 -18 -29 -1 -20 18 -27
7 -9 -14 7 -9 7 -9 -2 -2 -8 7 -18 4 -31 -7 -15 -14 -18 -14 -15 -3 2 8 -2 14
-9 13 -8 -2 -10 4 -6 15 6 15 4 15 -10 4 -8 -8 -13 -21 -11 -30 5 -14 3 -14
-6 1 -9 14 -15 16 -26 6 -7 -6 -11 -16 -7 -23 3 -6 2 -8 -2 -3 -5 4 -16 0 -26
-9 -17 -15 -18 -14 -14 17 4 31 3 32 -10 16 -7 -11 -12 -28 -10 -38 2 -11 0
-17 -5 -14 -5 3 -7 17 -4 30 6 31 -4 33 -15 3 -6 -15 -5 -29 3 -38 10 -13 9
-13 -6 -1 -10 7 -16 16 -13 20 2 4 6 21 9 37 3 16 8 43 12 59 17 78 -14 -8
-111 -315 -59 -184 -131 -411 -160 -504 l-54 -168 52 6 c29 3 213 15 410 28
197 12 362 25 368 28 8 5 -43 203 -235 919 -14 52 -31 99 -37 105 -9 8 -9 6 0
-11z m-42 -168 c0 -8 -4 -12 -9 -9 -5 3 -6 10 -3 15 9 13 12 11 12 -6z"/>
<path d="M3501 4854 c0 -11 3 -14 6 -6 3 7 2 16 -1 19 -3 4 -6 -2 -5 -13z"/>
<path d="M3646 4859 c2 -4 0 -10 -5 -14 -6 -3 -7 -13 -4 -22 5 -12 3 -14 -8
-7 -8 5 -18 9 -24 9 -5 1 -9 6 -8 11 1 6 -5 11 -12 11 -10 0 -12 -4 -5 -12 7
-9 5 -17 -7 -26 -15 -12 -16 -12 -10 3 3 10 2 20 -4 23 -5 4 -6 11 -3 17 5 7
2 8 -5 3 -9 -5 -9 -11 -3 -17 12 -12 4 -40 -9 -32 -5 3 -7 9 -5 13 3 4 -1 8
-8 8 -7 0 -13 -5 -14 -11 -2 -21 -8 -41 -15 -53 -8 -12 10 -12 30 0 15 10 25
-7 16 -30 -4 -13 3 -10 25 11 18 17 32 26 32 20 1 -5 9 1 19 13 l18 22 12 -27
13 -26 17 23 c16 20 18 21 31 6 19 -23 30 -1 25 48 -5 41 -15 64 -15 33 0 -9
-5 -14 -10 -11 -6 4 -8 10 -6 14 3 4 -1 8 -9 8 -11 0 -12 -4 -4 -13 6 -8 6
-14 0 -18 -5 -3 -12 0 -14 6 -4 10 -6 10 -6 0 -1 -7 -6 -10 -11 -7 -8 5 -8 11
-1 19 8 9 7 13 -4 13 -8 0 -12 -4 -9 -8z m32 -33 c6 1 13 2 15 4 1 1 9 3 18 5
12 2 15 -4 13 -24 -3 -37 -3 -36 -16 -23 -9 9 -16 8 -29 -4 -19 -17 -29 -8
-34 32 -1 16 1 22 9 16 6 -5 17 -7 24 -6z m-50 -15 c1 -1 -2 -10 -8 -22 -7
-11 -14 -18 -17 -15 -4 3 -14 -1 -23 -9 -15 -14 -18 -14 -30 0 -9 11 -16 12
-26 5 -9 -9 -12 -7 -9 7 2 10 4 23 5 28 0 6 7 1 15 -9 11 -15 15 -16 16 -5 0
11 2 11 6 1 4 -10 9 -8 19 6 12 17 25 20 52 13z"/>
<path d="M3695 4821 c-3 -6 -11 -8 -17 -5 -7 5 -8 2 -3 -6 6 -10 4 -12 -8 -7
-11 4 -14 2 -10 -9 5 -13 7 -13 22 0 13 12 20 13 28 5 9 -9 11 -7 9 4 -3 23
-13 30 -21 18z"/>
<path d="M3579 4788 c-6 -10 -15 -15 -21 -12 -7 5 -8 2 -3 -6 6 -10 12 -8 26
8 11 14 19 18 21 10 3 -8 6 -7 10 3 9 23 -21 20 -33 -3z"/>
<path d="M4800 3790 c-553 -38 -1120 -76 -1260 -85 -140 -9 -264 -17 -275 -18
-12 -1 54 -47 170 -118 105 -64 529 -324 944 -578 617 -379 756 -460 766 -449
7 7 48 72 92 143 235 381 445 795 554 1088 32 86 32 87 22 86 -5 -1 -460 -32
-1013 -69z"/>
<path d="M3210 3655 c0 -3 92 -371 205 -818 113 -447 267 -1058 343 -1359 75
-302 140 -548 144 -548 4 0 54 53 112 118 238 268 488 578 713 883 124 169
383 547 383 559 0 4 -39 31 -87 60 -49 29 -473 289 -943 578 -470 288 -858
526 -862 529 -5 2 -8 2 -8 -2z"/>
<path d="M3286 2707 c1 -12 3 -23 4 -24 2 -2 3 -6 5 -10 1 -5 5 -15 9 -24 4
-9 8 -31 9 -50 1 -19 7 -37 12 -41 6 -5 5 -8 -2 -8 -7 0 -13 -5 -13 -11 0 -5
5 -7 10 -4 6 4 10 3 9 -2 -1 -4 0 -10 1 -13 7 -19 7 -41 -1 -46 -5 -3 -6 -10
-3 -16 4 -7 2 -8 -5 -4 -6 4 -8 13 -4 19 13 20 12 36 -3 48 -13 10 -14 8 -10
-14 2 -15 0 -29 -5 -33 -5 -3 -7 -9 -4 -14 3 -5 1 -11 -4 -14 -5 -4 -8 2 -6
11 2 10 4 18 5 18 1 0 3 18 5 39 2 35 1 38 -10 22 -8 -10 -12 -26 -10 -37 2
-10 -1 -21 -6 -24 -5 -4 -6 -11 -3 -17 4 -7 2 -8 -5 -4 -8 6 -9 12 -2 20 7 9
7 16 0 23 -8 8 -8 13 0 17 6 4 11 12 11 18 0 6 -6 5 -16 -3 -8 -7 -13 -21 -11
-31 3 -10 1 -21 -4 -24 -5 -3 -7 -9 -4 -14 3 -5 1 -11 -4 -14 -5 -4 -8 2 -6
11 2 10 4 18 5 18 6 0 4 57 -2 61 -8 5 -9 1 -12 -35 0 -11 -5 -23 -9 -28 -5
-4 -7 -3 -6 2 2 6 -5 22 -15 38 -14 21 -22 25 -32 16 -8 -6 -11 -16 -8 -21 4
-7 9 -6 13 1 4 6 11 3 19 -9 7 -11 9 -19 5 -18 -5 2 -8 -1 -8 -7 0 -5 4 -9 8
-7 5 1 6 -2 2 -8 -7 -12 -36 6 -32 18 1 4 -2 8 -8 10 -5 1 -10 -2 -10 -7 0 -5
-3 -12 -7 -16 -8 -9 -5 16 5 32 4 6 3 14 -2 17 -10 6 -25 -26 -26 -56 0 -9 -3
-19 -6 -23 -4 -3 -5 10 -3 30 2 24 -1 33 -8 29 -6 -4 -9 -3 -5 2 3 5 -1 18 -9
29 -16 22 -18 8 -4 -30 6 -15 6 -24 1 -20 -5 3 -13 19 -16 36 -5 22 -10 28
-15 18 -5 -7 -6 -18 -2 -24 4 -5 7 -13 8 -17 1 -5 2 -9 4 -10 5 -8 7 -39 2
-33 -4 4 -7 12 -7 18 -1 7 -6 11 -12 10 -7 -2 -10 5 -8 15 1 10 -3 26 -11 37
-13 18 -14 16 -10 -23 2 -23 0 -45 -5 -48 -5 -3 -6 -10 -3 -16 4 -7 2 -8 -5
-4 -6 4 -8 13 -4 19 11 18 12 36 3 42 -4 3 -6 15 -3 28 4 20 3 20 -7 4 -6 -10
-9 -25 -6 -32 3 -8 1 -14 -3 -12 -5 1 -8 -2 -8 -8 1 -5 6 -9 11 -7 5 2 4 -4
-4 -12 -13 -17 -22 -21 -18 -8 2 4 -1 7 -7 7 -5 0 -9 -4 -7 -8 1 -5 -2 -6 -8
-2 -6 3 -8 10 -5 15 3 5 1 12 -5 15 -8 5 -8 11 0 20 7 8 7 15 1 19 -12 8 -22
-22 -16 -49 2 -11 4 -20 5 -20 1 0 3 -8 5 -18 2 -9 -1 -15 -6 -11 -5 3 -7 9
-4 14 3 5 1 11 -4 14 -5 4 -8 22 -6 42 2 27 0 33 -9 24 -14 -11 -15 -47 -3
-67 4 -6 2 -15 -4 -19 -7 -4 -9 -3 -5 4 3 6 2 13 -4 17 -6 4 -8 10 -5 15 3 5
1 12 -5 15 -8 5 -8 11 0 20 7 8 7 15 1 19 -20 13 -25 -44 -6 -74 7 -13 6 -13
-7 -2 -11 9 -15 25 -13 48 2 27 0 33 -9 24 -17 -13 -14 -53 4 -76 14 -18 14
-19 -7 -1 -12 11 -20 27 -18 38 2 10 0 21 -6 24 -8 6 -13 -8 -10 -28 0 -4 -4
-6 -11 -5 -7 2 -13 -3 -14 -9 -1 -7 -3 -16 -4 -20 -1 -5 -2 -12 -1 -16 1 -5
-3 -6 -9 -2 -8 5 -8 11 0 20 8 10 8 15 0 20 -6 4 -9 13 -6 20 3 8 -1 19 -9 25
-11 9 -13 7 -11 -12 1 -13 6 -30 11 -38 4 -8 -4 -4 -18 9 -33 30 -36 17 -4
-18 l22 -26 -28 25 c-15 13 -25 30 -23 36 3 7 -1 18 -9 24 -24 20 -11 -37 16
-68 l24 -27 -31 28 c-17 15 -34 24 -39 20 -4 -5 -5 -3 -2 3 4 7 -1 18 -10 25
-15 12 -16 12 -10 -3 4 -11 2 -17 -6 -15 -7 1 -11 -8 -11 -21 1 -12 -1 -20 -5
-17 -3 4 -6 10 -6 13 -1 4 -7 18 -14 31 -8 15 -16 20 -23 13 -14 -14 -17 -45
-6 -59 6 -7 5 -14 -3 -19 -7 -4 -9 -3 -5 4 3 6 2 13 -3 17 -10 5 -8 36 3 54 3
5 -2 15 -11 22 -14 12 -15 11 -9 -8 4 -12 3 -24 -3 -27 -7 -5 -8 -41 -1 -41 1
0 3 -8 5 -18 2 -9 -1 -15 -6 -11 -5 3 -7 9 -4 14 3 5 1 11 -4 15 -5 3 -8 14
-6 25 2 11 0 22 -6 25 -5 4 -10 1 -10 -4 -1 -6 -2 -17 -3 -23 -1 -7 2 -18 6
-25 6 -7 4 -14 -3 -19 -7 -4 -9 -3 -5 4 3 6 2 13 -4 17 -6 4 -8 10 -5 15 3 4
-2 13 -10 20 -13 11 -15 10 -12 -6 1 -11 6 -26 11 -34 7 -12 6 -13 -4 -3 -17
16 -22 44 -10 58 5 6 5 17 1 24 -6 9 -11 5 -16 -16 -5 -15 -7 -32 -6 -38 2 -5
-1 -7 -5 -3 -4 4 -14 0 -22 -10 -10 -12 -9 -8 2 10 22 38 19 48 -5 18 -12 -14
-20 -18 -19 -10 4 29 0 51 -9 46 -8 -5 -7 -27 3 -74 3 -13 1 -20 -5 -17 -5 4
-7 10 -4 14 2 5 -2 17 -10 27 -14 18 -15 17 -11 -8 3 -15 1 -30 -3 -32 -4 -3
-7 9 -6 27 1 38 -4 59 -14 52 -4 -2 -7 -20 -6 -39 1 -20 -1 -33 -6 -31 -4 3
-6 18 -3 33 4 25 3 26 -11 8 -8 -10 -12 -22 -10 -26 3 -4 -5 -16 -18 -26 -22
-19 -22 -19 -4 2 15 18 15 23 4 32 -11 9 -19 6 -35 -11 -12 -13 -19 -27 -15
-32 5 -4 2 -5 -5 -1 -11 6 -10 12 4 27 10 11 19 29 21 41 3 18 1 19 -12 8 -9
-7 -13 -15 -10 -18 3 -3 -2 -14 -12 -24 -16 -18 -17 -18 -40 4 -27 25 -31 14
-6 -16 15 -19 15 -19 -7 1 -18 17 -21 25 -12 36 7 8 9 17 5 21 -4 4 -12 -4
-19 -16 -11 -20 -10 -26 7 -44 16 -17 18 -24 7 -30 -7 -4 -10 -3 -5 1 4 5 -3
19 -15 32 -16 17 -24 20 -35 11 -11 -9 -11 -14 4 -32 18 -21 18 -21 -4 -2 -13
10 -21 21 -19 25 2 3 -5 22 -16 41 -15 27 -18 29 -13 10 13 -56 14 -62 8 -56
-4 4 -8 12 -9 19 -1 7 -7 23 -13 37 -9 23 -10 22 -7 -12 1 -20 8 -43 15 -51 9
-12 9 -17 0 -23 -7 -4 -9 -3 -6 3 4 6 -5 21 -18 33 -29 27 -34 17 -7 -14 17
-21 17 -21 -6 -2 -12 11 -22 24 -21 30 1 6 -2 21 -6 34 l-8 23 -12 -23 c-13
-26 -8 -48 7 -27 8 11 9 11 5 -1 -2 -8 5 -26 17 -40 11 -14 4 -10 -16 9 -21
19 -36 37 -34 40 2 3 0 15 -5 26 -6 17 -8 16 -8 -10 -1 -20 9 -40 32 -64 17
-20 23 -28 11 -18 -11 9 -24 14 -28 10 -4 -5 -6 -1 -4 7 2 8 -3 14 -9 13 -7
-2 -12 0 -12 5 1 4 1 22 0 41 -1 46 -13 32 -15 -18 -1 -22 -5 -43 -9 -47 -4
-4 -1 -14 6 -23 11 -14 10 -14 -6 -2 -13 10 -14 17 -7 26 8 9 8 15 0 20 -8 5
-8 10 0 20 7 8 7 15 1 19 -11 7 -25 -29 -16 -43 3 -5 1 -12 -5 -16 -6 -4 -8
-10 -5 -15 3 -5 1 -11 -4 -14 -5 -4 -8 2 -6 11 2 10 4 18 5 18 1 0 3 15 4 33
3 27 1 30 -10 21 -8 -6 -11 -15 -8 -20 3 -5 1 -8 -4 -7 -6 2 -10 -1 -10 -7 0
-5 4 -9 10 -7 5 1 6 -3 3 -9 -5 -8 -10 -8 -18 0 -8 8 -17 6 -31 -6 -12 -10
-16 -11 -9 -4 6 7 9 21 6 30 -4 12 -3 13 5 2 7 -9 12 -10 16 -2 4 6 4 11 0 11
-4 0 1 9 11 20 10 11 22 17 26 14 5 -3 9 1 9 8 0 8 15 29 33 46 22 21 34 28
34 18 0 -8 -5 -12 -11 -9 -6 4 -5 0 1 -9 7 -8 10 -18 7 -21 -4 -4 2 -5 14 -2
16 3 19 -1 16 -18 l-5 -22 10 21 c7 16 17 21 40 19 21 -2 28 1 24 9 -4 6 2 4
12 -4 17 -13 18 -13 10 0 -8 13 -7 13 10 0 15 -12 17 -12 10 -1 -6 11 -5 12 6
5 16 -9 119 -13 134 -5 6 3 35 6 65 6 30 0 61 4 69 9 11 7 12 6 6 -5 -7 -11
-6 -12 6 -3 8 6 40 10 73 9 40 -1 60 3 63 12 4 10 9 9 19 -4 13 -17 14 -17 8
2 -5 16 -4 17 5 5 9 -13 11 -13 11 0 0 13 1 13 10 0 9 -13 10 -13 10 0 0 13 1
13 10 0 9 -13 10 -13 10 0 0 13 1 13 10 0 9 -13 10 -13 10 0 0 13 1 13 10 0 9
-13 10 -13 10 0 0 13 1 13 10 0 9 -13 10 -13 10 0 0 13 1 13 10 0 9 -13 10
-13 10 0 0 13 1 13 10 0 9 -13 10 -13 10 0 0 13 1 13 10 0 9 -13 10 -13 10 0
0 13 1 13 10 0 9 -13 10 -13 10 0 0 13 1 13 10 0 9 -13 10 -13 10 0 0 13 1 13
10 0 9 -13 10 -13 10 0 0 13 1 13 10 0 9 -13 10 -13 10 0 0 13 1 13 10 0 9
-13 10 -13 10 0 0 13 2 13 11 0 10 -13 10 -13 6 0 -4 14 9 16 93 15 59 0 96 3
93 9 -4 5 -1 6 8 0 16 -10 80 -14 74 -4 -2 3 15 6 38 6 42 -1 42 -1 40 34 -2
29 -1 32 8 17 6 -10 9 -26 6 -36 -3 -15 4 -17 52 -15 31 1 57 3 59 4 1 1 7 3
12 4 15 2 30 28 23 40 -3 5 -1 6 5 2 16 -10 4 23 -17 48 -9 10 -14 20 -13 23
2 3 1 7 -1 10 -3 3 -4 -2 -3 -11 1 -9 8 -22 14 -28 7 -7 12 -19 12 -27 0 -8
-11 0 -25 19 -14 19 -25 29 -25 23 0 -7 5 -15 10 -18 6 -4 8 -11 4 -16 -3 -6
-12 -3 -19 8 -7 10 -11 21 -8 26 2 4 -1 6 -8 5 -7 -2 -13 2 -14 9 0 6 -3 14
-7 18 -16 16 0 -24 19 -49 14 -17 19 -34 15 -44 -6 -14 -7 -14 -10 4 -2 12
-12 30 -23 39 -18 17 -19 17 -30 -13 l-11 -32 -18 22 c-10 12 -16 29 -13 38 4
13 4 13 -6 0 -5 -8 -6 -19 -2 -23 11 -11 2 -49 -10 -42 -4 3 -6 12 -3 19 3 8
0 17 -5 21 -6 3 -8 12 -4 18 10 16 13 41 5 32 -4 -4 -7 -12 -7 -18 -1 -7 -6
-11 -12 -10 -6 1 -10 -6 -10 -15 0 -9 -1 -33 -3 -52 -2 -32 -3 -33 -9 -10 -4
14 -6 39 -4 55 2 21 0 26 -6 16 -5 -8 -6 -21 -3 -30 5 -14 4 -14 -11 -2 -13
10 -14 17 -7 26 8 9 8 15 0 20 -6 4 -9 3 -8 -2 2 -4 -1 -8 -7 -8 -5 0 -9 8 -9
18 1 10 -1 15 -5 12 -3 -4 -6 -15 -6 -26 0 -10 -4 -18 -10 -16 -5 1 -9 6 -7
10 1 5 -2 6 -8 2 -8 -5 -8 -11 0 -20 8 -9 8 -15 0 -20 -5 -3 -10 -16 -10 -28
0 -17 -2 -19 -9 -8 -6 9 -6 22 -1 31 5 9 3 25 -6 40 -7 14 -13 21 -14 17 0 -5
4 -16 9 -26 6 -10 6 -23 0 -32 -7 -12 -9 -12 -10 1 -1 8 0 20 1 25 1 6 -10 -1
-24 -14 -32 -30 -34 -17 -3 18 12 14 15 20 6 13 -9 -6 -19 -8 -23 -4 -4 4 -6
2 -4 -3 2 -6 -1 -11 -7 -12 -5 -1 -9 7 -9 18 1 11 -1 17 -5 14 -3 -4 -7 -15
-7 -26 -2 -32 -4 -34 -15 -19 -9 13 -10 12 -5 -2 3 -10 1 -20 -4 -23 -11 -7
-14 5 -12 45 1 18 -1 21 -7 11 -9 -14 -8 -30 4 -66 6 -17 4 -16 -13 4 -20 25
-22 37 -10 57 4 6 1 11 -6 11 -7 0 -13 -8 -12 -18 1 -10 -3 -19 -9 -19 -5 0
-9 9 -9 20 1 11 -2 17 -6 15 -10 -6 -7 -24 8 -52 8 -14 9 -24 2 -28 -5 -3 -10
1 -10 9 0 8 -4 17 -9 20 -5 4 -7 -4 -4 -16 3 -17 2 -19 -5 -9 -8 11 -11 11
-16 0 -3 -8 -4 -3 0 11 3 14 6 34 8 45 1 11 5 27 10 35 7 12 7 13 -5 2 -8 -7
-15 -22 -15 -33 -3 -36 -4 -40 -14 -34 -5 3 -8 11 -6 18 1 7 1 9 -1 4 -3 -4
-10 -4 -16 0 -7 4 -7 1 1 -9 8 -10 9 -19 3 -22 -5 -4 -13 4 -17 16 -12 33 -11
41 0 58 9 13 9 13 -6 2 -17 -14 -17 -37 1 -71 7 -13 8 -22 1 -26 -5 -3 -10 2
-11 12 0 10 -6 3 -15 -17 l-14 -35 2 30 c1 17 7 37 13 45 9 13 8 13 -7 1 -19
-14 -25 -2 -8 15 7 7 6 11 -4 11 -11 0 -13 -12 -10 -51 2 -42 1 -47 -7 -26 -6
14 -11 38 -11 53 -1 16 -4 23 -8 17 -4 -6 -5 -23 -2 -37 3 -18 1 -24 -7 -19
-6 4 -8 13 -5 19 5 9 4 9 -6 0 -16 -14 -40 -6 -34 12 7 17 -12 29 -22 14 -4
-8 -3 -9 4 -5 7 4 12 3 12 -2 0 -17 -13 -22 -27 -10 -11 9 -11 14 4 32 l18 21
-22 -19 c-21 -17 -28 -15 -24 7 1 5 -3 5 -10 2 -7 -5 -2 -17 15 -34 15 -15 24
-30 20 -34 -3 -3 -17 6 -30 21 -22 26 -23 26 -19 5 2 -13 0 -25 -6 -28 -9 -6
-13 7 -10 35 2 13 1 13 -8 0 -10 -13 -15 -7 -12 12 0 5 -4 7 -11 5 -7 -1 -12
3 -13 10 0 6 -3 14 -7 18 -19 20 2 -27 25 -54 15 -18 24 -38 20 -44 -4 -6 -9
-3 -14 9 -16 45 -77 66 -102 36 -8 -11 -8 -14 0 -9 6 4 14 3 17 -2 9 -14 -21
-21 -33 -7 -7 9 -7 16 1 24 7 7 13 19 14 28 1 9 -1 13 -4 9 -4 -4 -7 -12 -7
-18 -1 -7 -7 -11 -14 -9 -7 1 -10 -1 -7 -6 3 -5 -6 -20 -19 -32 -14 -13 -25
-19 -25 -13 0 6 7 16 15 23 8 7 15 17 15 22 0 6 -8 0 -19 -13 -18 -22 -19 -22
-29 -3 -5 10 -9 22 -9 26 1 3 -1 10 -5 14 -7 6 -5 -14 4 -43 1 -6 -1 -11 -7
-11 -5 0 -9 4 -7 10 1 5 -2 7 -8 3 -7 -5 -8 -11 -1 -19 5 -6 6 -18 2 -25 -6
-9 -10 -5 -15 14 l-7 26 -19 -23 c-11 -13 -19 -18 -20 -12 0 5 5 15 10 20 14
14 22 56 9 48 -6 -3 -8 -8 -5 -12 3 -3 -4 -21 -16 -41 -13 -20 -22 -38 -21
-41 1 -3 0 -7 -3 -9 -2 -2 -3 13 -2 33 1 40 -14 66 -27 45 -5 -8 -4 -10 3 -5
7 4 12 1 12 -9 0 -10 -5 -13 -12 -9 -6 4 -8 3 -4 -4 3 -6 2 -13 -4 -17 -5 -3
-11 -1 -11 4 -1 6 -2 17 -3 24 -1 6 1 17 6 23 4 6 2 11 -6 11 -8 0 -13 -8 -11
-18 2 -10 -3 -23 -11 -30 -13 -10 -14 -8 -10 16 3 15 2 25 -1 21 -10 -9 -15
-36 -15 -71 l1 -30 -14 25 c-7 14 -10 29 -7 35 11 17 11 35 0 41 -5 4 3 20 19
37 29 33 -72 -59 -397 -358 -390 -359 -590 -548 -587 -552 3 -2 229 -76 503
-164 1859 -598 2245 -721 2250 -717 2 3 -15 84 -40 179 -25 96 -118 462 -207
814 -89 352 -173 685 -187 740 -14 55 -29 101 -33 103 -4 2 -6 9 -3 17 3 7 1
15 -4 19 -5 3 -7 -5 -6 -17z m-76 -98 c0 -29 17 -31 35 -3 16 24 17 25 30 8 7
-10 10 -25 7 -32 -4 -11 -9 -8 -18 9 l-14 24 3 -24 c1 -16 -4 -25 -15 -26 -10
-2 -18 2 -18 8 0 7 -5 5 -10 -3 -9 -13 -10 -13 -10 0 0 13 -1 13 -10 0 -6 -9
-10 -10 -10 -3 0 6 4 14 9 18 6 3 9 14 8 25 -1 10 -5 17 -9 14 -4 -3 -4 -12
-1 -21 5 -12 3 -14 -7 -8 -8 5 -11 4 -7 -1 3 -6 2 -16 -4 -24 -13 -22 -12 5 3
46 9 26 15 31 25 22 7 -6 13 -19 13 -29z m-162 -33 c-2 -14 -11 -20 -31 -22
-15 0 -30 3 -33 8 -3 4 -11 5 -17 1 -7 -4 -51 -8 -99 -9 -49 -1 -89 -2 -90 -4
-13 -10 -38 -5 -38 8 0 8 3 12 7 9 11 -12 32 14 26 31 -3 9 5 4 18 -11 l24
-28 23 31 c22 30 25 30 37 13 7 -10 11 -21 9 -25 -2 -4 1 -10 7 -14 7 -4 9 -3
6 3 -3 5 0 10 8 10 8 0 11 -5 8 -10 -3 -6 -1 -7 5 -3 6 4 8 14 5 22 -4 11 -8
12 -13 4 -5 -8 -10 -8 -14 -2 -3 5 0 15 7 20 10 9 17 4 31 -19 18 -30 36 -31
36 -2 0 9 8 25 17 35 16 18 17 18 40 -4 13 -12 23 -31 21 -42z m51 41 c-1 -7
1 -20 6 -30 4 -10 5 -21 1 -24 -3 -4 -6 2 -7 13 0 18 -1 18 -9 -1 -7 -15 -9
-10 -8 22 1 23 6 39 10 37 5 -3 8 -11 7 -17z m-1123 -32 c-1 -9 -6 -15 -12
-14 -5 0 -8 5 -6 11 1 5 -2 6 -8 3 -8 -5 -7 -12 3 -23 8 -10 19 -26 25 -38 10
-19 8 -20 -26 -19 -32 1 -37 4 -38 25 0 14 11 37 24 52 26 28 42 29 38 3z
m407 7 c8 -7 18 -24 21 -38 l7 -26 22 28 c12 16 21 33 19 39 -1 5 5 1 13 -9 8
-11 15 -24 15 -30 0 -6 7 0 16 12 12 18 19 20 35 12 10 -6 19 -8 19 -4 0 3 6
1 13 -5 8 -6 17 -8 20 -4 4 3 7 -1 7 -9 0 -20 -43 -18 -52 2 -6 13 -7 13 -7
-1 -1 -12 -9 -16 -32 -14 -19 2 -33 -3 -36 -11 -4 -12 -8 -11 -19 3 -10 13
-13 14 -9 3 4 -12 -1 -16 -20 -16 -15 0 -24 5 -21 11 2 6 -3 22 -10 36 l-15
24 7 -24 c4 -16 3 -21 -5 -17 -6 4 -11 15 -12 24 0 15 -1 15 -8 -1 -4 -10 -11
-18 -16 -17 -6 1 -12 -9 -15 -22 -5 -21 -12 -23 -65 -23 -33 0 -64 -3 -70 -6
-5 -3 -37 -5 -69 -4 -49 0 -61 4 -67 20 -8 20 -8 20 -9 0 -2 -17 -3 -16 -9 5
-10 31 -2 49 11 26 9 -16 11 -16 29 0 18 16 19 16 13 1 -3 -9 -3 -24 0 -33 5
-13 9 -14 21 -4 8 7 12 17 8 23 -3 5 -1 7 4 4 6 -4 17 0 24 9 11 14 14 13 21
-7 l9 -23 23 29 c23 29 23 29 30 7 4 -12 5 -26 2 -30 -3 -5 1 -9 8 -9 7 0 11
8 9 17 -2 8 4 24 15 33 17 16 21 16 32 2 9 -11 17 -12 32 -4 14 8 17 14 9 23
-15 17 31 15 52 -2z m326 -42 c0 -8 -5 -5 -11 8 l-12 23 -12 -23 c-8 -13 -13
-17 -14 -9 0 8 8 23 17 33 17 19 18 19 24 1 4 -10 8 -25 8 -33z m418 18 c-3
-8 -6 -5 -6 6 -1 11 2 17 5 13 3 -3 4 -12 1 -19z m-480 -20 c-3 -8 -6 -5 -6 6
-1 11 2 17 5 13 3 -3 4 -12 1 -19z m80 0 c-3 -8 -6 -5 -6 6 -1 11 2 17 5 13 3
-3 4 -12 1 -19z m-708 -21 c0 -21 -1 -21 -9 -2 -12 28 -12 37 0 30 6 -3 10
-16 9 -28z m318 1 c-3 -7 -5 -2 -5 12 0 14 2 19 5 13 2 -7 2 -19 0 -25z m47
19 c4 4 4 -1 0 -11 -5 -12 -9 -14 -14 -6 -6 9 -9 9 -13 -1 -3 -8 -6 -3 -6 10
-1 18 2 21 12 12 8 -6 17 -8 21 -4z m190 -100 c1 -8 8 -23 16 -33 14 -18 14
-18 -6 -2 -11 9 -20 27 -21 39 -2 23 7 20 11 -4z m633 -2 c0 -8 -4 -12 -9 -9
-5 3 -6 10 -3 15 9 13 12 11 12 -6z m-572 -4 c3 -5 2 -12 -3 -15 -5 -3 -9 1
-9 9 0 17 3 19 12 6z m170 -11 c10 -11 16 -20 13 -20 -3 0 -13 9 -23 20 -10
11 -16 20 -13 20 3 0 13 -9 23 -20z m-134 -7 c13 -16 12 -17 -3 -4 -17 13 -22
21 -14 21 2 0 10 -8 17 -17z m-411 3 c0 -2 -8 -10 -17 -17 -16 -13 -17 -12 -4
4 13 16 21 21 21 13z m181 -13 c12 -16 12 -17 -2 -6 -9 7 -20 9 -24 5 -5 -4
-5 -1 -1 6 9 16 11 15 27 -5z m344 8 c3 -5 2 -12 -3 -15 -5 -3 -9 1 -9 9 0 17
3 19 12 6z m-674 -18 c13 -16 12 -17 -3 -4 -10 7 -18 15 -18 17 0 8 8 3 21
-13z m189 3 c0 -2 -8 -10 -17 -17 -16 -13 -17 -12 -4 4 13 16 21 21 21 13z
m-229 -23 c13 -16 12 -17 -3 -4 -10 7 -18 15 -18 17 0 8 8 3 21 -13z m-330 -6
c-6 -8 -7 -18 -3 -22 4 -5 1 -5 -6 -1 -10 6 -10 11 -1 22 6 8 14 14 16 14 3 0
0 -6 -6 -13z m76 -12 c0 -8 -4 -12 -9 -9 -5 3 -6 10 -3 15 9 13 12 11 12 -6z"/>
<path d="M2989 2612 c-4 -39 -2 -45 14 -48 9 -1 15 2 12 6 -3 5 -1 11 4 14 5
4 12 -2 14 -11 4 -14 5 -14 6 -2 0 8 -6 24 -14 35 -15 19 -15 19 -9 -1 6 -20
5 -20 -10 -1 -9 11 -17 15 -17 8z m16 -21 c3 -5 2 -12 -3 -15 -5 -3 -9 1 -9 9
0 17 3 19 12 6z"/>
<path d="M2860 2583 c0 -14 -2 -15 -9 -5 -7 11 -9 11 -14 0 -3 -9 3 -14 18
-14 16 0 21 5 17 18 -6 23 -12 23 -12 1z"/>
<path d="M2769 2563 c-12 -16 -12 -17 2 -6 9 7 20 9 24 5 5 -4 5 -1 1 6 -9 16
-11 15 -27 -5z"/>
<path d="M1929 2568 c-6 -20 -2 -55 7 -55 9 0 10 7 4 23 -5 12 -6 25 -3 28 4
3 3 6 0 6 -4 0 -7 -1 -8 -2z"/>
<path d="M1950 2545 c0 -5 5 -17 10 -25 5 -8 10 -10 10 -5 0 6 -5 17 -10 25
-5 8 -10 11 -10 5z"/>
<path d="M2506 2563 c-6 -14 -5 -15 5 -6 7 7 10 15 7 18 -3 3 -9 -2 -12 -12z"/>
<path d="M2257 2562 c-8 -17 0 -35 16 -38 9 -1 15 2 12 6 -3 5 -1 11 4 14 5 4
12 -2 14 -11 4 -16 5 -16 6 -1 1 23 -43 48 -52 30z m33 -7 c0 -2 -6 -8 -13
-14 -10 -8 -14 -7 -14 2 0 8 6 14 14 14 7 0 13 -1 13 -2z"/>
<path d="M2446 2561 c-4 -5 -2 -12 3 -15 5 -4 12 -2 15 3 4 5 2 12 -3 15 -5 4
-12 2 -15 -3z"/>
<path d="M2195 2540 c-17 -19 -19 -19 -36 -4 -17 16 -19 16 -25 0 -4 -9 -4
-20 0 -23 3 -4 6 1 6 11 0 9 5 14 10 11 6 -4 8 -10 5 -15 -4 -7 24 -6 33 0 1
2 7 3 14 4 6 0 12 9 14 19 3 22 1 21 -21 -3z"/>
<path d="M2061 2524 c0 -11 3 -14 6 -6 3 7 2 16 -1 19 -3 4 -6 -2 -5 -13z"/>
<path d="M2039 2683 c-13 -16 -12 -17 4 -4 16 13 21 21 13 21 -2 0 -10 -8 -17
-17z"/>
<path d="M2833 2675 c0 -8 4 -12 9 -9 5 3 6 10 3 15 -9 13 -12 11 -12 -6z"/>
<path d="M3165 2670 c-4 -6 -10 -8 -15 -5 -4 3 -7 -2 -6 -10 1 -8 4 -16 7 -17
2 -2 3 -1 1 1 -1 2 5 13 15 23 9 10 13 18 10 18 -3 0 -9 -5 -12 -10z"/>
<path d="M2540 2656 c0 -2 8 -10 18 -17 15 -13 16 -12 3 4 -13 16 -21 21 -21
13z"/>
<path d="M2050 2646 c0 -2 8 -10 18 -17 15 -13 16 -12 3 4 -13 16 -21 21 -21
13z"/>
<path d="M2533 2632 c10 -10 14 -22 10 -27 -5 -4 -2 -5 5 -1 11 6 10 12 -4 27
-9 10 -19 19 -22 19 -3 0 2 -8 11 -18z"/>
<path d="M1999 2623 c-13 -16 -12 -17 4 -4 9 7 17 15 17 17 0 8 -8 3 -21 -13z"/>
<path d="M2163 2615 c0 -8 4 -12 9 -9 5 3 6 10 3 15 -9 13 -12 11 -12 -6z"/>
<path d="M2223 2615 c0 -8 4 -12 9 -9 5 3 6 10 3 15 -9 13 -12 11 -12 -6z"/>
<path d="M2100 2605 c5 -7 6 -16 2 -21 -4 -5 -3 -5 2 -1 15 12 15 34 0 34 -9
0 -11 -4 -4 -12z"/>
<path d="M3292 2570 c-7 -12 -17 -18 -22 -15 -5 3 -11 1 -15 -5 -4 -6 -11 -7
-17 -4 -7 4 -8 2 -4 -5 6 -9 11 -9 22 0 8 6 14 8 14 4 0 -4 6 -2 13 4 8 6 16
9 18 6 3 -2 5 5 6 15 2 25 1 25 -15 0z"/>
<path d="M3081 2528 c13 -25 26 -30 33 -12 3 8 10 13 15 10 5 -3 13 0 19 7 8
10 1 13 -33 13 -38 0 -42 -3 -34 -18z"/>
<path d="M3187 2523 c9 -13 18 -23 21 -23 3 0 2 3 -1 6 -3 4 -2 14 3 23 7 14
4 17 -15 17 -22 0 -22 -1 -8 -23z"/>
<path d="M2796 2524 c-3 -9 -9 -14 -13 -11 -3 4 -12 -5 -20 -20 -18 -35 -9
-42 12 -9 10 14 21 24 25 21 10 -6 35 24 26 32 -3 3 -6 0 -6 -8 0 -11 -2 -12
-9 -1 -6 11 -10 10 -15 -4z"/>
<path d="M2864 2530 c2 -16 20 -14 24 2 3 10 2 10 -6 -1 -7 -9 -11 -10 -15 -2
-4 7 -5 8 -3 1z"/>
<path d="M2921 2536 c-1 -5 7 -18 17 -29 9 -11 12 -17 5 -14 -14 8 -28 -9 -14
-17 11 -7 27 12 35 44 6 19 5 21 -3 10 -10 -13 -11 -13 -11 0 0 12 -2 13 -9 1
-7 -11 -9 -11 -14 0 -3 8 -6 10 -6 5z"/>
<path d="M1865 2500 c-9 -10 -15 -25 -12 -32 3 -8 6 -5 7 7 1 17 2 18 8 3 6
-15 9 -14 19 7 14 31 1 41 -22 15z"/>
<path d="M2467 2513 c-7 -11 -4 -40 5 -48 3 -4 9 3 13 15 7 22 -8 49 -18 33z"/>
<path d="M2503 2504 c-3 -8 -1 -20 5 -26 7 -7 10 -2 9 16 -2 30 -5 32 -14 10z"/>
<path d="M2542 2503 c6 -7 14 -11 18 -8 5 3 15 -4 23 -16 l15 -21 12 22 c11
20 13 21 30 5 17 -15 18 -15 17 7 -2 22 -6 23 -64 23 -48 0 -59 -2 -51 -12z
m55 -15 c-3 -8 -6 -5 -6 6 -1 11 2 17 5 13 3 -3 4 -12 1 -19z"/>
<path d="M2692 2493 c12 -13 22 -23 24 -23 1 0 1 10 0 23 -1 17 -7 23 -23 23
l-23 0 22 -23z"/>
<path d="M2730 2515 c0 -2 7 -8 15 -15 12 -10 15 -10 15 2 0 8 -7 15 -15 15
-8 0 -15 -1 -15 -2z"/>
<path d="M2335 2500 c-2 -4 3 -16 11 -26 12 -15 14 -15 11 -3 -3 9 -1 21 4 26
6 6 4 10 -6 10 -9 0 -18 -3 -20 -7z"/>
<path d="M2388 2488 c2 -10 8 -15 13 -12 5 3 6 11 2 17 -4 7 0 6 10 -2 14 -11
17 -11 17 1 0 8 -10 14 -24 14 -17 0 -22 -4 -18 -18z"/>
<path d="M2184 2488 c-2 -4 -14 -5 -25 -3 -17 4 -19 2 -9 -10 7 -8 9 -15 5
-15 -5 0 0 -9 10 -20 14 -15 21 -17 31 -9 8 6 12 15 9 19 -2 4 4 15 14 24 20
18 38 6 25 -16 -4 -7 -4 -10 1 -6 4 4 13 4 19 -1 7 -5 19 1 32 18 l22 26 -65
0 c-36 0 -67 -3 -69 -7z m30 -10 c-3 -5 -9 -6 -14 -3 -5 3 -12 -4 -15 -16 -4
-11 -9 -18 -12 -16 -9 9 16 44 31 44 8 0 13 -4 10 -9z m57 -11 c-10 -9 -11 -8
-5 6 3 10 9 15 12 12 3 -3 0 -11 -7 -18z"/>
<path d="M1971 2479 c-1 -9 8 -24 20 -35 20 -18 20 -18 13 11 -9 37 -14 44
-15 19 0 -18 -1 -18 -9 1 -6 15 -9 16 -9 4z"/>
<path d="M2050 2484 c1 -18 27 -56 33 -48 3 5 -3 20 -14 33 -10 13 -19 19 -19
15z"/>
<path d="M2070 2480 c0 -4 8 -14 18 -24 18 -15 19 -15 29 7 10 20 8 22 -18 23
-16 1 -29 -2 -29 -6z m40 -6 c0 -8 -19 -13 -24 -6 -3 5 1 9 9 9 8 0 15 -2 15
-3z"/>
<path d="M1809 2443 c-13 -16 -12 -17 4 -4 9 7 17 15 17 17 0 8 -8 3 -21 -13z"/>
</g>
</svg>
