<?xml version="1.0" standalone="no"?>
<!DOCTYPE svg PUBLIC "-//W3C//DTD SVG 20010904//EN"
 "http://www.w3.org/TR/2001/REC-SVG-20010904/DTD/svg10.dtd">
<svg version="1.0" xmlns="http://www.w3.org/2000/svg"
 width="316.000000pt" height="376.000000pt" viewBox="0 0 316.000000 376.000000"
 preserveAspectRatio="xMidYMid meet">

<g transform="translate(0.000000,376.000000) scale(0.100000,-0.100000)"
fill="#000000" stroke="none">
<path d="M560 3514 c-72 -19 -152 -75 -190 -132 -63 -96 -60 -1 -60 -1634 l0
-1488 1148 2 1147 3 55 26 c102 48 164 118 194 219 14 48 16 212 16 1537 l0
1483 -1127 -1 c-956 0 -1136 -3 -1183 -15z m460 -87 c0 4 5 2 11 -4 6 -6 18
-9 27 -6 9 4 13 2 9 -4 -9 -15 23 -26 38 -13 6 5 14 8 16 6 5 -5 324 -48 356
-48 14 0 20 -5 16 -12 -4 -6 1 -5 10 3 16 13 21 9 18 -14 -1 -5 5 -1 14 9 13
17 15 17 21 3 4 -12 11 -14 21 -8 8 4 34 4 57 0 22 -5 75 -14 116 -20 41 -6
79 -14 85 -17 5 -4 20 -7 31 -7 24 -1 26 23 6 62 -17 32 -16 33 31 33 89 0
115 -10 127 -46 l11 -34 57 29 c73 36 107 47 97 31 -4 -7 2 -18 14 -26 12 -9
19 -19 16 -24 -3 -4 2 -11 11 -14 9 -3 12 -11 8 -18 -5 -7 -2 -9 8 -5 11 4 20
-3 28 -24 13 -31 38 -55 27 -26 -12 31 8 17 32 -22 17 -27 41 -47 75 -63 64
-29 178 -105 236 -156 l45 -40 -17 -36 -17 -35 -76 35 c-42 19 -82 33 -88 30
-7 -2 -4 -5 7 -5 11 -1 16 -6 13 -15 -3 -8 3 -22 14 -32 10 -9 17 -20 14 -22
-3 -3 3 -15 13 -26 10 -12 47 -67 81 -123 56 -92 68 -105 112 -125 27 -13 49
-25 49 -29 0 -3 -25 -76 -55 -162 -53 -153 -64 -217 -42 -245 5 -7 7 -15 4
-19 -4 -3 -2 -14 3 -24 7 -12 7 -20 -1 -24 -7 -5 -5 -15 5 -31 9 -13 16 -39
16 -58 0 -19 5 -38 10 -41 6 -3 10 -25 10 -48 0 -24 6 -67 14 -97 12 -47 26
-128 42 -252 2 -16 2 -28 0 -28 -2 0 -23 45 -46 100 -23 55 -47 100 -54 100
-6 0 -20 -6 -31 -14 -11 -7 -23 -14 -27 -15 -11 -3 -71 -30 -88 -40 -37 -22
-104 -50 -111 -45 -10 6 1 36 85 241 36 89 66 168 66 174 0 7 -64 169 -142
361 l-143 348 -74 31 c-70 29 -83 31 -124 14 -13 -6 -20 0 -28 23 -8 24 -22
35 -65 52 l-54 22 -37 -33 c-128 -111 -212 -254 -271 -459 -47 -160 -63 -262
-63 -395 0 -194 67 -539 145 -747 l33 -88 -538 0 -539 0 0 48 c0 73 18 252 41
407 72 496 270 950 555 1277 53 60 141 138 203 178 23 15 18 19 -218 160 -132
80 -243 153 -247 162 -3 9 -11 15 -18 12 -7 -3 -19 3 -27 12 -13 16 -12 16 9
5 12 -6 22 -8 22 -4z m80 -17 c0 -5 -5 -10 -11 -10 -5 0 -7 5 -4 10 3 6 8 10
11 10 2 0 4 -4 4 -10z m1398 -203 c37 -28 52 -46 52 -63 0 -32 -10 -30 -75 11
-53 34 -76 70 -60 95 7 12 12 10 83 -43z m-1385 -294 c34 -25 64 -48 65 -49 6
-4 -78 -124 -87 -124 -4 0 -40 21 -79 46 l-72 46 22 31 c48 69 71 97 80 97 5
0 37 -21 71 -47z m806 -221 c37 -58 38 -63 8 -107 l-24 -35 -34 47 c-53 72
-52 70 -23 108 14 19 30 35 34 35 4 0 22 -22 39 -48z m-1133 -318 l82 -36 -25
-77 c-14 -42 -29 -79 -32 -83 -6 -6 -144 40 -172 58 -13 8 42 174 59 174 4 0
44 -16 88 -36z m982 -17 l53 -54 -12 -46 c-6 -26 -17 -47 -23 -47 -6 0 -33 22
-60 49 l-48 49 13 51 c7 28 15 51 19 51 3 0 29 -24 58 -53z m19 -411 c14 -14
28 -116 15 -116 -5 0 -44 16 -86 35 l-76 36 0 65 0 65 68 -37 c37 -20 72 -42
79 -48z m-1101 -258 c3 -3 -6 -48 -19 -99 -20 -79 -27 -94 -43 -92 -115 9
-172 16 -182 22 -9 5 -5 31 14 101 14 52 28 98 30 101 4 7 191 -25 200 -33z
m1762 -93 c-3 -3 -9 2 -12 12 -6 14 -5 15 5 6 7 -7 10 -15 7 -18z m-638 -86
c36 -6 71 -15 79 -19 11 -6 61 -110 61 -128 0 -4 -128 6 -171 14 -21 4 -29 16
-47 67 -27 75 -28 90 -4 83 9 -3 46 -10 82 -17z m-936 -493 c59 -25 76 -58 76
-151 0 -91 -17 -126 -71 -149 l-28 -12 60 -77 60 -77 -80 0 -80 0 -51 66 -50
67 0 -67 0 -66 -65 0 -65 0 0 240 0 240 130 0 c88 0 141 -4 164 -14z m515 -4
c64 -34 71 -63 71 -274 l0 -188 -65 0 -65 0 0 45 0 45 -55 0 -55 0 0 -45 0
-45 -71 0 -70 0 3 194 c3 217 8 232 79 268 48 25 182 25 228 0z m331 -222 l0
-240 -65 0 -65 0 0 233 c0 129 3 237 7 240 3 4 33 7 65 7 l58 0 0 -240z m270
65 l0 -175 95 0 95 0 0 -65 0 -65 -160 0 -160 0 0 240 0 240 65 0 65 0 0 -175z
m610 110 l0 -65 -110 0 c-103 0 -110 -1 -110 -20 0 -18 7 -20 65 -20 77 0 123
-17 153 -55 18 -23 22 -41 22 -99 -1 -79 -12 -108 -56 -137 -25 -16 -47 -19
-166 -19 l-138 0 0 60 0 60 115 0 115 0 0 30 0 30 -75 0 c-124 0 -165 36 -165
147 0 70 25 118 73 138 21 10 72 14 155 15 l122 0 0 -65z"/>
<path d="M710 850 l0 -50 55 0 55 0 0 50 0 50 -55 0 -55 0 0 -50z"/>
<path d="M1220 835 l0 -66 53 3 52 3 0 60 0 60 -52 3 -53 3 0 -66z"/>
</g>
</svg>
